<svg xmlns="http://www.w3.org/2000/svg" version="1.1" xmlns:xlink="http://www.w3.org/1999/xlink" xmlns:svgjs="http://svgjs.dev/svgjs" width="1440" height="560" preserveAspectRatio="none" viewBox="0 0 1440 560"><g mask="url(&quot;#SvgjsMask1001&quot;)" fill="none"><rect width="1440" height="560" x="0" y="0" fill="#1e3266"></rect><path d="M1512 560L0 560 L0 336.77Q58.1 274.87, 120 332.96Q218.56 311.52, 240 410.09Q249.24 347.33, 312 356.57Q331.79 304.36, 384 324.15Q435.69 255.84, 504 307.53Q579.83 263.36, 624 339.18Q695.69 290.88, 744 362.57Q824.32 322.89, 864 403.21Q868.13 335.33, 936 339.46Q972.22 255.68, 1056 291.9Q1147.74 263.63, 1176 355.37Q1187.6 294.97, 1248 306.56Q1319.56 258.12, 1368 329.67Q1379.41 269.08, 1440 280.49Q1484.89 253.38, 1512 298.27z" fill="#182f5d"></path><path d="M1464 560L0 560 L0 461.81Q80.12 421.94, 120 502.06Q148.87 458.93, 192 487.8Q191.52 415.32, 264 414.84Q290.23 369.06, 336 395.29Q393.02 380.31, 408 437.33Q489.56 398.89, 528 480.46Q546.79 379.25, 648 398.04Q702.84 332.88, 768 387.71Q850.59 350.3, 888 432.89Q961.03 385.92, 1008 458.95Q1015.79 394.74, 1080 402.52Q1133.36 335.88, 1200 389.23Q1267 384.24, 1272 451.24Q1284.91 392.15, 1344 405.07Q1418.74 359.81, 1464 434.54z" fill="#25467d"></path><path d="M1464 560L0 560 L0 594.08Q7.52 529.6, 72 537.12Q101.31 446.43, 192 475.74Q239.6 451.34, 264 498.93Q309.77 472.7, 336 518.46Q416.38 478.84, 456 559.21Q507.22 538.43, 528 589.65Q556.41 498.06, 648 526.47Q700.92 459.39, 768 512.31Q810.21 434.51, 888 476.72Q957.76 426.49, 1008 496.25Q1081.13 497.38, 1080 570.51Q1146.68 517.19, 1200 583.87Q1200.03 511.9, 1272 511.93Q1316.98 436.91, 1392 481.89Q1452.87 470.75, 1464 531.62z" fill="#356cb1"></path></g><defs><mask id="SvgjsMask1001"><rect width="1440" height="560" fill="#ffffff"></rect></mask></defs></svg>