<svg xmlns="http://www.w3.org/2000/svg" version="1.1" xmlns:xlink="http://www.w3.org/1999/xlink" xmlns:svgjs="http://svgjs.dev/svgjs" width="1440" height="560" preserveAspectRatio="none" viewBox="0 0 1440 560"><g mask="url(&quot;#SvgjsMask1000&quot;)" fill="none"><rect width="1440" height="560" x="0" y="0" fill="#0e2a47"></rect><path d="M0,419.325C81.589,425.555,173.582,419.356,234.134,364.319C293.464,310.392,287.806,218.06,307.06,140.23C322.65,77.211,342.327,16.29,336.22,-48.341C329.889,-115.353,308.92,-179.322,271.577,-235.323C230.546,-296.855,178.819,-350.604,112.644,-383.629C37.889,-420.936,-51.519,-469.073,-127.589,-434.527C-204.871,-399.43,-205.201,-289.117,-251.751,-218.143C-290.249,-159.446,-355.406,-120.991,-377.027,-54.208C-400.813,19.262,-408.736,101.79,-378.31,172.768C-347.632,244.335,-277.463,287.721,-212.229,330.236C-146.623,372.993,-78.082,413.363,0,419.325" fill="#0b2239"></path><path d="M1440 1101.355C1542.601 1098.426 1635.675 1053.839 1725.79 1004.698 1822.095 952.182 1946.374 911.058 1980.274 806.735 2014.348 701.8779999999999 1909.781 603.809 1891.387 495.1 1873.661 390.344 1939.8220000000001 267.271 1874.777 183.264 1809.982 99.58100000000002 1675.908 130.276 1577.927 90.26499999999999 1464.426 43.916000000000054 1375.672-91.87300000000005 1255.076-69.79499999999996 1136.284-48.048 1088.1109999999999 95.793 1016.51 193.04399999999998 950.694 282.437 860.418 364.879 853.473 475.67 846.652 584.475 929.1759999999999 673.653 980.348 769.9159999999999 1028.212 859.956 1060.819 961.677 1143.53 1021.317 1228.274 1082.423 1335.566 1104.336 1440 1101.355" fill="#113255"></path></g><defs><mask id="SvgjsMask1000"><rect width="1440" height="560" fill="#ffffff"></rect></mask></defs></svg>